<?xml version="1.0" standalone="no"?><!DOCTYPE svg PUBLIC "-//W3C//DTD SVG 1.1//EN" "http://www.w3.org/Graphics/SVG/1.1/DTD/svg11.dtd"><svg width="200" height="200" viewBox="0 0 200 200" version="1.1" xmlns="http://www.w3.org/2000/svg" xmlns:xlink="http://www.w3.org/1999/xlink"><defs><style type="text/css"><![CDATA[
@font-face { font-family: ifont; src: url("//at.alicdn.com/t/font_1442373896_4754455.eot?#iefix") format("embedded-opentype"), url("//at.alicdn.com/t/font_1442373896_4754455.woff") format("woff"), url("//at.alicdn.com/t/font_1442373896_4754455.ttf") format("truetype"), url("//at.alicdn.com/t/font_1442373896_4754455.svg#ifont") format("svg"); }

]]></style></defs><g class="transform-group"><g transform="scale(0.1953125, 0.1953125)"><path d="M503.302885 21.316458l0.341063 0.106582 489.639036 484.949415L522.274533 40.522586l-15.006786-14.836255-4.327241 4.284608 0.021316-8.5479C503.004455 21.380407 503.089721 21.316458 503.302885 21.316458M865.554769 570.023398 865.554769 992.025313l0-20.890129-0.063949-400.898622c0 0 0.021316 0 0.063949 0L865.554769 570.023398M503.302885 0c-5.542279 0-11.105875 2.089013-15.326533 6.267039-4.220659 4.156709-6.309672 9.635039-6.330988 15.092052L6.650735 491.770682c-8.334735 8.249469-8.334735 21.593572 0 29.843041 4.156709 4.114076 9.613722 6.181773 15.070736 6.181773 5.457013 0 10.914026-2.067696 15.070736-6.181773L507.289063 55.678588l470.987135 465.849869c4.220659 4.178026 9.784254 6.267039 15.34785 6.267039 5.542279 0 11.105875-2.089013 15.326533-6.267039 8.441317-8.398684 8.441317-21.955952 0-30.333319L518.629418 6.267039C514.387443 2.089013 508.845164 0 503.302885 0L503.302885 0zM865.554769 548.920105c-11.788001 0-21.316458 9.443191-21.316458 21.103293L844.238311 971.135185l-682.12665 0L162.111662 570.023398c0-11.660102-9.549773-21.103293-21.316458-21.103293s-21.316458 9.443191-21.316458 21.103293L119.478746 992.238478c0 11.660102 9.549773 21.103293 21.316458 21.103293l724.759565 0c11.788001 0 21.316458-9.443191 21.316458-21.103293L886.871227 570.023398C886.871227 558.363296 877.34277 548.920105 865.554769 548.920105L865.554769 548.920105zM498.677214 18.161622 498.677214 31.484408 507.843291 31.484408 507.843291 18.161622 503.260252 14.601774Z" fill="#272636"></path></g></g></svg>