<?xml version="1.0" standalone="no"?><!DOCTYPE svg PUBLIC "-//W3C//DTD SVG 1.1//EN" "http://www.w3.org/Graphics/SVG/1.1/DTD/svg11.dtd"><svg width="200" height="200" viewBox="0 0 200 200" version="1.1" xmlns="http://www.w3.org/2000/svg" xmlns:xlink="http://www.w3.org/1999/xlink"><defs><style type="text/css"><![CDATA[
@font-face { font-family: ifont; src: url("//at.alicdn.com/t/font_1442373896_4754455.eot?#iefix") format("embedded-opentype"), url("//at.alicdn.com/t/font_1442373896_4754455.woff") format("woff"), url("//at.alicdn.com/t/font_1442373896_4754455.ttf") format("truetype"), url("//at.alicdn.com/t/font_1442373896_4754455.svg#ifont") format("svg"); }

]]></style></defs><g class="transform-group"><g transform="scale(0.1953125, 0.1953125)"><path d="M511.647983 66.203818c-246.588141 0-447.230857 200.642716-447.230857 447.236997 0 246.587118 200.642716 447.229834 447.230857 447.229834 246.593258 0 447.234951-200.642716 447.234951-447.229834C958.882933 266.846534 758.240217 66.203818 511.647983 66.203818L511.647983 66.203818zM511.647983 923.464259c-226.102574 0-410.025491-183.929056-410.025491-410.029584 0-226.102574 183.922916-410.025491 410.025491-410.025491 226.100528 0 410.023444 183.922916 410.023444 410.025491C921.671427 739.536226 737.748511 923.464259 511.647983 923.464259L511.647983 923.464259zM598.736457 521.027607c42.008766-28.121478 69.689199-75.982532 69.689199-130.33851 0-86.583984-70.189595-156.779719-156.777673-156.779719-86.590124 0-156.783813 70.195735-156.783813 156.779719 0 54.355979 27.684526 102.217033 69.693292 130.34465-88.181365 34.748409-150.610206 120.639614-150.610206 221.164099 0 0.191358 0.00614 0.381693 0.01228 0.573051 0 0.047072-0.01228 0.094144-0.01228 0.14224 0 13.727653 4.152577 24.853038 17.880229 24.853038 13.725606 0 19.046798-11.125385 19.046798-24.853038 0-0.303922-0.077771-0.589424-0.089028-0.895393 0.095167-103.798041 97.03808-200.687742 200.861704-200.687742 103.888092 0 200.871937 96.983845 200.871937 200.867844 0 0.124843 0.437975 10.258645 3.287883 16.147772 2.993171 6.185886 10.082636 9.80225 17.726733 9.141194 11.949146-1.033539 15.819291-10.776438 15.819291-24.413016 0-0.059352-0.01842-0.112564-0.01842-0.173962 0.00614-0.232291 0.01842-0.470721 0.01842-0.703011C749.352803 641.673361 686.917822 555.783179 598.736457 521.027607L598.736457 521.027607zM511.647983 509.501086c-65.61644 0-118.814036-53.190433-118.814036-118.80585 0-65.623603 53.197596-118.814036 118.814036-118.814036 65.614393 0 118.811989 53.190433 118.811989 118.814036C630.459972 456.310653 577.262376 509.501086 511.647983 509.501086L511.647983 509.501086zM511.647983 496.731248" fill="#272636"></path></g></g></svg>